{"title":"This Week - S13E14 - 2015.01.08 - 468p x264","uid":11709746,"size":512591195,"categoryP":"video","categoryS":"tv_shows","magnet":"?xt=urn:btih:2df0604ba567744755df985b6afa122948f4d76f&amp;dn=This+Week+-+S13E14+-+2015.01.08+-+468p+x264&amp;tr=udp%3A%2F%2Ftracker.openbittorrent.com%3A80&amp;tr=udp%3A%2F%2Fopen.demonii.com%3A1337&amp;tr=udp%3A%2F%2Ftracker.coppersurfer.tk%3A6969&amp;tr=udp%3A%2F%2Fexodus.desync.com%3A6969","seeders":0,"leechers":0,"uploader":"rugbybill","files":3,"time":1424278830,"description":"POLITICAL: This Week\nOn: BBC 1 HD     \nDate: Thursday 8th January 2015 \nTime: 23:40 to 00:25 \n\nAndrew Neil presents  \n\nAndrew Neil presents a review of the political week and film on the terrorist attacks in Paris and the political ramifications; with Michael Portillo and guests. Journalist Simon Jenkins explains why he thinks politicians have gone mad trying to pretend they can heal the NHS with a little extra money. And former BBC broadcaster Richard Bacon says why he is one of the few feeling positive and cheerful about the start of the longest-ever general election campaign. The panel for the first programme of 2015 sees Diane Abbott, Michael Portillo and Miranda Green help review the political week. Crack open the Blue Nun and prepare to watch public service broadcasting at its best.\n\nCredits\n\nPresenter\tAndrew Neil\nPanellist\tMichael Portillo\nPanellist\tDiane Abbott\nPanellist\tMiranda Green\nInterviewed Guest\tSimon Jenkins\nInterviewed Guest\tRichard Bacon\nInterviewed Guest\tDavid Aaronovitch\nEditor\tVicky Flind\nDirector\tClaire Bellis\nAssistant Editor\tRichard Garvin\nProduction Manager\tPaula Prynn\nProducer\tAndrew Bradley\nProducer\tArryn Moy\nAssistant Producer\tEd Baranski\nExecutive Producer\tRobbie Gibb\nExecutive Producer\tSamir Shah\nProduction Company\tJuniper TV\n\n\nGeneral\nComplete name                            : 2015.01.08.This.Week.webrip.468p.x264.mp4\nFormat                                   : MPEG-4\nFormat profile                           : Base Media\nCodec ID                                 : isom\nFile size                                : 488 MiB\nDuration                                 : 45mn 24s\nOverall bit rate mode                    : Constant\nOverall bit rate                         : 1 503 Kbps\n\nVideo\nID                                       : 1\nFormat                                   : AVC\nFormat/Info                              : Advanced Video Codec\nFormat profile                           : &lt;a class=&quot;__cf_email__&quot; href=&quot;/cdn-cgi/l/email-protection&quot; data-cfemail=&quot;c588a4acab8589f6ebf4&quot;&gt;[email&amp;#160;protected]&lt;/a&gt;&lt;script cf-hash='f9e31' type=&quot;text/javascript&quot;&gt;\n/* &lt;![CDATA[ */!function(){try{var t=&quot;currentScript&quot;in document?document.currentScript:function(){for(var t=document.getElementsByTagName(&quot;script&quot;),e=t.length;e--;)if(t[e].getAttribute(&quot;cf-hash&quot;))return t[e]}();if(t&amp;&amp;t.previousSibling){var e,r,n,i,c=t.previousSibling,a=c.getAttribute(&quot;data-cfemail&quot;);if(a){for(e=&quot;&quot;,r=parseInt(a.substr(0,2),16),n=2;a.length-n;n+=2)i=parseInt(a.substr(n,2),16)^r,e+=String.fromCharCode(i);e=document.createTextNode(e),c.parentNode.replaceChild(e,c)}}}catch(u){}}();/* ]]&gt; */&lt;/script&gt;\nFormat settings, CABAC                   : Yes\nFormat settings, ReFrames                : 2 frames\nCodec ID                                 : avc1\nCodec ID/Info                            : Advanced Video Coding\nDuration                                 : 45mn 24s\nBit rate mode                            : Constant\nBit rate                                 : 1 404 Kbps\nWidth                                    : 832 pixels\nHeight                                   : 468 pixels\nDisplay aspect ratio                     : 16:9\nFrame rate mode                          : Constant\nFrame rate                               : 25.000 fps\nColor space                              : YUV\nChroma subsampling                       : 4:2:0\nBit depth                                : 8 bits\nScan type                                : Progressive\nBits/(Pixel*Frame)                       : 0.144\nStream size                              : 456 MiB (93%)\n\nAudio\nID                                       : 2\nFormat                                   : AAC\nFormat/Info                              : Advanced Audio Codec\nFormat profile                           : LC\nCodec ID                                 : 40\nDuration                                 : 45mn 24s\nBit rate mode                            : Constant\nBit rate                                 : 93.5 Kbps\nChannel(s)                               : 2 channels\nChannel positions                        : Front: L R\nSampling rate                            : 48.0 KHz\nCompression mode                         : Lossy\nStream size                              : 30.4 MiB (6%)","torrent":{"xt":"urn:btih:2df0604ba567744755df985b6afa122948f4d76f","amp;dn":"This+Week+-+S13E14+-+2015.01.08+-+468p+x264","amp;tr":["udp%3A%2F%2Ftracker.openbittorrent.com%3A80","udp%3A%2F%2Fopen.demonii.com%3A1337","udp%3A%2F%2Ftracker.coppersurfer.tk%3A6969","udp%3A%2F%2Fexodus.desync.com%3A6969"],"infoHash":"2df0604ba567744755df985b6afa122948f4d76f","infoHashBuffer":{"type":"Buffer","data":[45,240,96,75,165,103,116,71,85,223,152,91,106,250,18,41,72,244,215,111]},"announce":[],"urlList":[]}}